<svg xmlns="http://www.w3.org/2000/svg" xmlns:xlink="http://www.w3.org/1999/xlink" viewBox="0 0 120 133"><defs><filter id="a" width="117.6%" height="250%" x="-8.8%" y="-75%" filterUnits="objectBoundingBox"><feGaussianBlur in="SourceGraphic" stdDeviation="3"/></filter><path id="b" d="M43.6 0h32.8c15.2 0 20.7 1.6 26.2 4.5 5.5 3 9.9 7.4 12.9 12.9s4.5 11 4.5 26.2v32.8c0 15.2-1.6 20.7-4.5 26.2-3 5.5-7.4 9.9-12.9 12.9s-11 4.5-26.2 4.5H43.6c-15.2 0-20.7-1.6-26.2-4.5-5.5-3-9.9-7.4-12.9-12.9S0 91.6 0 76.4V43.6c0-15.2 1.6-20.7 4.5-26.2 3-5.5 7.4-9.9 12.9-12.9S28.4 0 43.6 0z"/></defs><g fill="none" fill-rule="evenodd"><ellipse cx="60" cy="121" fill="#000" fill-opacity=".2" filter="url(#a)" rx="51" ry="6"/><mask id="c" fill="#fff"><use xlink:href="#b"/></mask><use xlink:href="#b" fill="#006486"/><g stroke="#E2B031" stroke-linecap="round" stroke-linejoin="round" stroke-width="7" mask="url(#c)"><path d="M94 60a33.8 33.8 0 0 1-10.2 24.3C77.7 90.3 69.3 94 60 94a33.8 33.8 0 0 1-23.8-9.7A33.8 33.8 0 0 1 26 60c0-1.4 0-2.7.2-4A34 34 0 0 1 94 60zm-.3-4a70.5 70.5 0 0 1-33 7.9c-12.8 0-25-3-34.5-7.9a34 34 0 0 1 67.5 0zm-9.9 28.3a33.7 33.7 0 0 1-47.6 0 24.5 24.5 0 0 1 24.5-20.4c12.1 0 21.4 8.7 23.1 20.4z"/></g></g></svg>